# xmcd
#
# Track frame offsets:
#	150
#	12905
#	25125
#	39350
#	53572
#	66382
#	76140
#	92460
#	104580
#	116677
#	129622
#	146090
#	162607
#	176150
#	195265
#	217015
#
# Disc length: 3062 seconds
#
# Revision: 2
# Processed by: cddbd v1.5.2PL0 Copyright (c) Steve Scherf et al.
# Submitted via: audiograbber 1.83.01
#
DISCID=dd0bf410
DTITLE=Merle Haggard - 16 Biggest Hits
DYEAR=1995
DGENRE=Country
TTITLE0=Swinging Doors
TTITLE1=The Bottle Let Me Down
TTITLE2=I'm A Lonesome Fugitive
TTITLE3=Branded Man
TTITLE4=Sing Me Back Home
TTITLE5=Mama Tried
TTITLE6=Hungry Eyes
TTITLE7=Workin' Man Blues
TTITLE8=Okie From Muskogee
TTITLE9=The Fightin' Side of Me
TTITLE10=Daddy Frank (The Guitar Man)
TTITLE11=I Think I'll Just Stay Here And Drink
TTITLE12=Big City
TTITLE13=Are The Good Times Really Over (I Wish A Buck Was Still Silver)
TTITLE14=Going Where The Lonely Go
TTITLE15=Silver Wings
EXTD=
EXTT0=
EXTT1=
EXTT2=
EXTT3=
EXTT4=
EXTT5=
EXTT6=
EXTT7=
EXTT8=
EXTT9=
EXTT10=
EXTT11=
EXTT12=
EXTT13=
EXTT14=
EXTT15=
PLAYORDER=
